# xmcd
#
# Track frame offsets: 
#        150
#        8429
#        36936
#        60650
#        77085
#        107693
#        128996
#        155523
#        171344
#        201754
#        223527
#        254768
#        267942
#        277625
#        300643
#
# Disc length: 4283 seconds
#
# Revision: 0
# Processed by: cddbd v1.5.2PL0 Copyright (c) Steve Scherf et al.
# Submitted via: ExactAudioCopy v0.99pb5
#
DISCID=cb10b90f
DTITLE=Vlatko Stefanovski Trio feat. Jan Akkerman - Thunder From The B
DTITLE=lue Sky
DYEAR=2008
DGENRE=Blues
TTITLE0=Amazing Grace
TTITLE1=Stormy Monday Blues
TTITLE2=Rock Me Baby
TTITLE3=What'd I Say
TTITLE4=Texas Flood
TTITLE5=Thrill Is Gone
TTITLE6=Hoochie Coochie Man
TTITLE7=Testify
TTITLE8=You Got To Move
TTITLE9=Need Your Love So Bad
TTITLE10=Spider In My Web
TTITLE11=Country
TTITLE12=Dizy Fingers
TTITLE13=I'm So Glad
TTITLE14=Thunder From The Blue Sky
EXTD=
EXTT0=
EXTT1=
EXTT2=
EXTT3=
EXTT4=
EXTT5=
EXTT6=
EXTT7=
EXTT8=
EXTT9=
EXTT10=
EXTT11=
EXTT12=
EXTT13=
EXTT14=
PLAYORDER=
